<svg width="60" height="60" viewBox="0 0 40 40" fill="none" xmlns="http://www.w3.org/2000/svg">
<g clip-path="url(#clip0_109_239)">
<path d="M34.5455 0H5.45455C2.44208 0 0 2.44208 0 5.45455V34.5455C0 37.5579 2.44208 40 5.45455 40H34.5455C37.5579 40 40 37.5579 40 34.5455V5.45455C40 2.44208 37.5579 0 34.5455 0Z" fill="white" fill-opacity="0.8"/>
<path d="M23.7409 13.1728H30.0068V14.7319H23.7409V13.1728ZM32.5 21.9341C32.5 18.6796 29.9795 16.041 26.8727 16.041C23.7659 16.041 21.2455 18.6796 21.2455 21.9341C21.2455 25.1887 23.5841 27.825 26.8727 27.825C29.3727 27.825 31.5091 26.725 32.2341 24.0841H29.5955C29.3532 24.5362 28.9926 24.914 28.5523 25.177C28.1119 25.44 27.6084 25.5784 27.0955 25.5773C25.6205 25.5773 24.3227 24.5205 24.4 22.7432H32.4568C32.5 22.4841 32.5 22.216 32.5 21.9341ZM24.4091 20.7773C24.6045 19.3137 25.6386 18.3796 26.8864 18.3796C28.1341 18.3796 29.1591 19.3137 29.3636 20.7773H24.4091ZM20.2818 22.1819C20.0773 19.9228 17.5227 19.1614 17.5227 19.1614C18.4932 18.7069 19.65 17.7773 19.6386 15.7296C19.6205 12.775 16.5386 12.175 15.5477 12.175H7.5V27.5432H14.8114C15.8273 27.5432 16.9091 27.4091 17.7659 26.9819C20.0773 25.8455 20.4818 24.4432 20.2818 22.1819ZM10.8818 14.8273H14.3409C14.3409 14.8273 16.3864 14.7796 16.3864 16.5887C16.3864 18.3978 14.3409 18.3478 14.3409 18.3478H10.8818V14.8273ZM14.5455 24.9341H10.8818V20.7319H14.5455C14.5455 20.7319 16.9818 20.675 16.9818 22.8319C16.9818 24.9887 14.5455 24.9341 14.5455 24.9341Z" fill="#383838"/>
</g>
<defs>
<clipPath id="clip0_109_239">
<rect width="40" height="40" fill="white"/>
</clipPath>
</defs>
</svg>
